# xmcd
# 
# Track frame offsets:
#     150
#     20163
#     41839
#     56010
#     76560
#     92521
#     115828
#     132857
#     154511
#     169973
#     191765
#     215627
#     237199
#     264609
# 
# Disc length: 3848
# 
# Revision: 0
# Processed by: cddbd v1.5.2PL0 Copyright (c) Steve Scherf et al.
# Submitted via: fre:ac v1.0.31
# 
DISCID=bc0f060e
DTITLE=EL LUPE - ATRAS DEL PALO
DYEAR=1996
DGENRE=Dance
TTITLE0=BAILANDO (RADIO EDIT)
TTITLE1=AMANDOTE (RADIO EDIT)
TTITLE2=NIÑA (ESTAS ATRAS DEL PALO) (RADIO EDIT)
TTITLE3=DULCE OBSESION (RADIO EDIT)
TTITLE4=ZANDUNGA (RADIO EDIT)
TTITLE5=MALDON (RADIO EDIT)
TTITLE6=CANDELA (RADIO EDIT)
TTITLE7=PEDRO NAVAJA (RADIO EDIT)
TTITLE8=TONTA (RADIO EDIT)
TTITLE9=BONUS TRACK: AMANDOTE (THE KILLER CLUB MIX)
TTITLE10=BONUS TRACK: CANDELA (WATER TRANCE MXI)
TTITLE11=BONUS TRACK: NIÑA (ESTAS ATRAS DEL PALO) (SUBSONIC MIX)
TTITLE12=BONUS TRACK: OBSESION (EXTENDED DANCE MIX)
TTITLE13=BONUS TRACK: ZANDUNGA (THE REAL SOUND MIX)
EXTD=
EXTT0=
EXTT1=
EXTT2=
EXTT3=
EXTT4=
EXTT5=
EXTT6=
EXTT7=
EXTT8=
EXTT9=
EXTT10=
EXTT11=
EXTT12=
EXTT13=
PLAYORDER=
